<svg width="54" height="50" viewBox="0 0 54 50" fill="none" xmlns="http://www.w3.org/2000/svg">
<ellipse cx="26.8837" cy="25" rx="26.1628" ry="25" fill="white" fill-opacity="0.9"/>
<path d="M40.2196 28.3847L40.0499 28.4722C39.3644 27.6774 38.1768 27.3693 37.272 27.8075C37.2688 27.809 37.2655 27.8107 37.2624 27.8122L36.8618 28.0183C36.384 27.6318 35.7931 27.3955 35.1696 27.3416C34.5461 27.2878 33.9204 27.4191 33.3778 27.7176L31.2206 28.8387H28.35C27.7284 28.8379 27.115 28.7036 26.5551 28.4457L26.1602 28.2631C25.0359 27.7404 23.7822 27.5252 22.5379 27.6414C21.2935 27.7575 20.1071 28.2004 19.1099 28.9211C19.1005 28.9279 19.0914 28.9348 19.0826 28.9425L18.1292 29.7535C17.7689 30.0593 17.3431 30.2861 16.8814 30.4182L16.3399 28.7197C16.3131 28.6356 16.2587 28.562 16.1848 28.5097C16.1109 28.4574 16.0213 28.4292 15.9294 28.4292H11.3185C11.2577 28.4292 11.1976 28.4415 11.1423 28.4653C11.0869 28.4892 11.0374 28.524 10.9971 28.5674C10.9568 28.6109 10.9267 28.662 10.9086 28.7174C10.8906 28.7729 10.885 28.8313 10.8924 28.889L12.4293 40.9311C12.442 41.0306 12.4923 41.1222 12.5708 41.1886C12.6493 41.255 12.7506 41.2917 12.8554 41.2917H19.7714C19.8384 41.2917 19.9046 41.2766 19.9645 41.2478C20.0244 41.219 20.0764 41.1771 20.1163 41.1256C20.1562 41.0741 20.1829 41.0144 20.1943 40.9512C20.2057 40.888 20.2015 40.8232 20.1819 40.7619L19.2734 37.9131L22.103 36.2041C22.4816 36.0039 22.9258 35.949 23.3453 36.0505C23.3542 36.0526 23.3631 36.0545 23.3721 36.056L29.1281 37.0688C30.6923 37.3363 32.3051 37.1187 33.7307 36.4479C33.7489 36.4393 33.7664 36.4295 33.7832 36.4185L43.7388 29.8866C43.829 29.8274 43.8921 29.7376 43.9153 29.6354C43.9385 29.5333 43.92 29.4265 43.8636 29.3369C43.5013 28.7604 42.9203 28.3397 42.2415 28.1623C41.5627 27.9849 40.8384 28.0646 40.2196 28.3847ZM37.6644 28.5371C38.1877 28.2867 38.8465 28.4919 39.2673 28.8756L35.4921 30.8218L35.2703 30.9335C35.1508 30.6091 34.9761 30.3058 34.7532 30.0358L37.6644 28.5371ZM33.7933 28.4355C33.7966 28.4337 33.8004 28.4319 33.8034 28.43C34.1415 28.2432 34.5259 28.1466 34.9164 28.1501C35.307 28.1536 35.6894 28.2572 36.0238 28.45L34.1043 29.4375C33.7384 29.1823 33.3208 29.0027 32.8783 28.9102L33.7933 28.4355ZM13.2351 40.4714L11.8033 29.2495H15.6112L19.1917 40.4714H13.2351ZM33.3221 35.7251C32.0687 36.3081 30.6539 36.496 29.2817 36.2616L23.5399 35.2512C22.9083 35.1023 22.2411 35.1887 21.6738 35.4929C21.6671 35.4964 21.6605 35.5002 21.654 35.5042L19.0131 37.0995L17.1316 31.2034C17.7118 31.0363 18.2469 30.7504 18.6996 30.3655L19.6395 29.5657C20.5104 28.9401 21.545 28.5563 22.6295 28.4566C23.714 28.3569 24.8063 28.5452 25.786 29.0007L26.1808 29.1833C26.8573 29.4948 27.5985 29.6571 28.3495 29.6581H32.1786C32.7413 29.6588 33.2862 29.8468 33.7196 30.1898C34.1531 30.5327 34.448 31.0091 34.5537 31.5373L31.7784 31.4173C30.7694 31.374 29.7585 31.4186 28.758 31.5507C28.6461 31.5665 28.5453 31.624 28.4775 31.7105C28.4097 31.797 28.3803 31.9056 28.3958 32.0126C28.4114 32.1197 28.4705 32.2166 28.5603 32.2822C28.6502 32.3479 28.7636 32.377 28.8757 32.3632C29.8243 32.2379 30.7829 32.1956 31.7395 32.2369L35.0057 32.378C35.0122 32.378 35.0187 32.3784 35.0252 32.3784C35.139 32.3784 35.2482 32.3352 35.3287 32.2583C35.4092 32.1814 35.4544 32.0771 35.4544 31.9683C35.4544 31.9019 35.4515 31.8361 35.4472 31.7707L35.8951 31.5451L40.6274 29.1063C40.9908 28.9183 41.4091 28.8502 41.8171 28.9127C42.2252 28.9752 42.6003 29.1648 42.884 29.452L33.3221 35.7251Z" fill="#052244"/>
<path d="M14.5997 38.7746C14.5997 39.03 14.6789 39.2796 14.8274 39.492C14.9759 39.7044 15.187 39.8699 15.4339 39.9676C15.6808 40.0653 15.9525 40.0909 16.2147 40.0411C16.4768 39.9913 16.7176 39.8683 16.9066 39.6877C17.0956 39.5071 17.2243 39.277 17.2764 39.0265C17.3286 38.776 17.3018 38.5164 17.1995 38.2804C17.0973 38.0445 16.9241 37.8428 16.7018 37.7009C16.4796 37.559 16.2183 37.4833 15.951 37.4833C15.5928 37.4837 15.2493 37.6198 14.9959 37.8619C14.7426 38.104 14.6001 38.4322 14.5997 38.7746ZM15.951 38.3036C16.0485 38.3036 16.1438 38.3312 16.2249 38.383C16.3059 38.4347 16.3691 38.5083 16.4064 38.5943C16.4437 38.6804 16.4535 38.7751 16.4345 38.8665C16.4155 38.9578 16.3685 39.0418 16.2996 39.1076C16.2306 39.1735 16.1428 39.2184 16.0472 39.2365C15.9516 39.2547 15.8525 39.2454 15.7624 39.2097C15.6723 39.1741 15.5954 39.1137 15.5412 39.0363C15.487 38.9588 15.4581 38.8677 15.4581 38.7746C15.4584 38.6497 15.5104 38.5301 15.6028 38.4418C15.6952 38.3536 15.8204 38.3039 15.951 38.3037V38.3036Z" fill="#052244"/>
<path d="M30.6707 14.1732V12.8216C30.6667 11.9984 30.3217 11.2103 29.7111 10.6296C29.1005 10.0489 28.2741 9.72284 27.4126 9.72284C26.5511 9.72284 25.7247 10.0489 25.1141 10.6296C24.5036 11.2103 24.1585 11.9984 24.1545 12.8216V14.1732C24.1585 14.9964 24.5036 15.7845 25.1141 16.3653C25.7247 16.946 26.5511 17.272 27.4126 17.272C28.2741 17.272 29.1005 16.946 29.7111 16.3653C30.3217 15.7845 30.6667 14.9964 30.6707 14.1732ZM25.0129 14.1732V12.8216C25.0164 12.2156 25.2708 11.6356 25.7204 11.2083C26.1701 10.781 26.7784 10.5411 27.4126 10.5411C28.0468 10.5411 28.6552 10.781 29.1048 11.2083C29.5545 11.6356 29.8088 12.2156 29.8123 12.8216V14.1732C29.8088 14.7792 29.5545 15.3592 29.1048 15.7865C28.6552 16.2139 28.0468 16.4537 27.4126 16.4537C26.7784 16.4537 26.1701 16.2139 25.7204 15.7865C25.2708 15.3592 25.0164 14.7792 25.0129 14.1732Z" fill="#052244"/>
<path d="M22.1609 25.7341H32.6644C32.7782 25.7341 32.8874 25.6909 32.9679 25.614C33.0484 25.5371 33.0936 25.4327 33.0936 25.324V24.3825H40.284C40.3978 24.3825 40.507 24.3393 40.5875 24.2624C40.668 24.1855 40.7132 24.0811 40.7132 23.9724V21.3102C40.7127 20.529 40.4011 19.7773 39.8416 19.2078C39.2821 18.6383 38.5167 18.2936 37.7008 18.2438C37.4719 18.2278 37.3542 18.3663 37.2588 18.4775C37.0689 18.6992 36.8285 18.8766 36.556 18.9961C36.2835 19.1156 35.9861 19.174 35.6864 19.167C35.3866 19.16 35.0925 19.0878 34.8264 18.9557C34.5604 18.8236 34.3294 18.6353 34.151 18.405C34.11 18.352 34.0563 18.3092 33.9943 18.2802C33.9324 18.2513 33.864 18.237 33.7951 18.2386C33.2375 18.2506 32.693 18.4024 32.2162 18.6788C31.9014 18.329 31.5163 18.0431 31.0837 17.8381C30.6512 17.6331 30.18 17.5131 29.698 17.4853C29.4762 17.4767 29.3641 17.6054 29.2554 17.7314C29.0326 17.9916 28.7505 18.1998 28.4308 18.34C28.111 18.4803 27.7619 18.5489 27.4102 18.5407C27.0585 18.5325 26.7133 18.4477 26.4011 18.2927C26.0889 18.1377 25.8178 17.9166 25.6086 17.6463C25.5676 17.5932 25.5139 17.5504 25.4519 17.5215C25.39 17.4925 25.3216 17.4783 25.2526 17.4801C24.3113 17.5009 23.4162 17.874 22.7599 18.5191C22.7056 18.5721 22.6542 18.627 22.6041 18.6827C22.1608 18.4249 21.6585 18.2742 21.1406 18.2437C20.9125 18.2276 20.7939 18.3661 20.6986 18.4774C20.5087 18.6991 20.2683 18.8764 19.9958 18.9959C19.7233 19.1154 19.4259 19.1739 19.1261 19.1669C18.8264 19.1599 18.5323 19.0876 18.2662 18.9556C18.0002 18.8235 17.7692 18.6351 17.5908 18.4048C17.5498 18.3519 17.496 18.3091 17.4341 18.2802C17.3722 18.2513 17.3039 18.237 17.2349 18.2385C16.3965 18.2589 15.5996 18.5915 15.0141 19.1653C14.4286 19.7391 14.1009 20.5088 14.1007 21.3102V23.9724C14.1007 24.0811 14.146 24.1855 14.2265 24.2624C14.307 24.3393 14.4161 24.3825 14.53 24.3825H21.7316V25.324C21.7316 25.4327 21.7769 25.5371 21.8574 25.614C21.9379 25.6909 22.047 25.7341 22.1609 25.7341ZM33.6118 19.0719C33.8765 19.359 34.2018 19.589 34.5664 19.747C34.931 19.9049 35.3266 19.9871 35.7269 19.9881C36.1272 19.9891 36.5232 19.9089 36.8886 19.7528C37.2541 19.5967 37.5807 19.3682 37.8469 19.0825C38.4051 19.163 38.9146 19.432 39.283 19.8407C39.6514 20.2494 39.8542 20.7708 39.8547 21.3102V23.5622H33.0936V20.931C33.094 20.3848 32.9581 19.8464 32.6969 19.3605C32.9774 19.2042 33.2891 19.1059 33.6118 19.0719ZM25.0676 18.3128C25.3644 18.6411 25.7315 18.9047 26.1442 19.0857C26.5568 19.2667 27.0052 19.3609 27.4592 19.3619C27.9133 19.3629 28.3622 19.2708 28.7757 19.0917C29.1892 18.9125 29.5576 18.6506 29.856 18.3237C30.5151 18.4108 31.119 18.7227 31.5563 19.2019C31.9936 19.6811 32.2348 20.2952 32.2354 20.931V24.9138H22.5901V20.931C22.5944 20.28 22.8493 19.6532 23.3063 19.1703C23.7632 18.6874 24.3902 18.3822 25.0676 18.3128ZM14.9592 23.5622V21.3102C14.9628 20.7576 15.1775 20.2252 15.5628 19.8131C15.9482 19.401 16.4777 19.1376 17.052 19.0722C17.3166 19.3591 17.642 19.5891 18.0065 19.747C18.3711 19.9049 18.7666 19.987 19.1668 19.988C19.567 19.9889 19.9629 19.9087 20.3283 19.7527C20.6937 19.5966 21.0203 19.3682 21.2865 19.0825C21.582 19.1248 21.8664 19.2206 22.1242 19.365C21.8654 19.8499 21.7309 20.3866 21.7316 20.931V23.5622H14.9592Z" fill="#052244"/>
<path d="M38.5924 15.395V14.2119C38.5924 13.4756 38.2863 12.7695 37.7414 12.2489C37.1966 11.7282 36.4576 11.4357 35.687 11.4357C34.9165 11.4357 34.1775 11.7282 33.6327 12.2489C33.0878 12.7695 32.7817 13.4756 32.7817 14.2119V15.395C32.7817 16.1313 33.0878 16.8375 33.6327 17.3581C34.1775 17.8788 34.9165 18.1712 35.687 18.1712C36.4576 18.1712 37.1966 17.8788 37.7414 17.3581C38.2863 16.8375 38.5924 16.1313 38.5924 15.395ZM33.6402 15.395V14.2119C33.6402 13.6932 33.8558 13.1957 34.2397 12.8289C34.6236 12.4621 35.1442 12.256 35.687 12.256C36.2299 12.256 36.7505 12.4621 37.1344 12.8289C37.5183 13.1957 37.7339 13.6932 37.7339 14.2119V15.395C37.7339 15.9138 37.5183 16.4113 37.1344 16.7781C36.7505 17.1449 36.2299 17.3509 35.687 17.3509C35.1442 17.3509 34.6236 17.1449 34.2397 16.7781C33.8558 16.4113 33.6402 15.9138 33.6402 15.395Z" fill="#052244"/>
<path d="M22.0323 15.395V14.2119C22.0323 13.8474 21.9571 13.4864 21.8111 13.1495C21.6651 12.8127 21.4511 12.5067 21.1813 12.2489C20.9115 11.9911 20.5912 11.7866 20.2387 11.6471C19.8863 11.5075 19.5085 11.4357 19.1269 11.4357C18.7454 11.4357 18.3676 11.5075 18.0151 11.6471C17.6626 11.7866 17.3423 11.9911 17.0725 12.2489C16.8028 12.5067 16.5888 12.8127 16.4427 13.1495C16.2967 13.4864 16.2216 13.8474 16.2216 14.2119V15.395C16.2216 15.7596 16.2967 16.1206 16.4427 16.4574C16.5888 16.7943 16.8028 17.1003 17.0725 17.3581C17.3423 17.6159 17.6626 17.8204 18.0151 17.9599C18.3676 18.0994 18.7454 18.1712 19.1269 18.1712C19.5085 18.1712 19.8863 18.0994 20.2387 17.9599C20.5912 17.8204 20.9115 17.6159 21.1813 17.3581C21.4511 17.1003 21.6651 16.7943 21.8111 16.4574C21.9571 16.1206 22.0323 15.7596 22.0323 15.395ZM17.0801 15.395V14.2119C17.0801 13.6932 17.2957 13.1957 17.6796 12.8289C18.0634 12.4621 18.5841 12.256 19.1269 12.256C19.6698 12.256 20.1904 12.4621 20.5743 12.8289C20.9581 13.1957 21.1738 13.6932 21.1738 14.2119V15.395C21.1738 15.6519 21.1209 15.9062 21.018 16.1435C20.9151 16.3808 20.7643 16.5964 20.5743 16.7781C20.3842 16.9597 20.1586 17.1038 19.9102 17.2021C19.6619 17.3003 19.3957 17.3509 19.1269 17.3509C18.8581 17.3509 18.592 17.3003 18.3436 17.2021C18.0953 17.1038 17.8696 16.9597 17.6796 16.7781C17.4895 16.5964 17.3387 16.3808 17.2359 16.1435C17.133 15.9062 17.0801 15.6519 17.0801 15.395Z" fill="#052244"/>
</svg>
