<svg width="53" height="50" viewBox="0 0 53 50" fill="none" xmlns="http://www.w3.org/2000/svg">
<ellipse cx="26.6046" cy="25" rx="26.1628" ry="25" fill="white" fill-opacity="0.9"/>
<g clip-path="url(#clip0)">
<path d="M26.0814 22.95C26.0025 22.95 25.9241 22.9335 25.8511 22.901L16.6592 18.7676C16.47 18.6824 16.3489 18.5 16.3489 18.3C16.3489 18.1001 16.47 17.9177 16.6592 17.8324L25.8511 13.6991C25.9971 13.6335 26.1658 13.6335 26.3118 13.6991L35.5036 17.8324C35.6929 17.9177 35.814 18.1001 35.814 18.3C35.814 18.5 35.6929 18.6824 35.5036 18.7676L26.3118 22.901C26.2388 22.9335 26.1604 22.95 26.0814 22.95ZM18.1597 18.3L26.0814 21.8624L34.0032 18.3L26.0814 14.7376L18.1597 18.3Z" fill="#052244"/>
<path d="M26.0814 27.0833C25.9987 27.0833 25.9154 27.0653 25.8397 27.0291L19.3514 23.9291C19.1681 23.8413 19.0524 23.6625 19.0524 23.4667V19.5157C19.0524 19.339 19.147 19.1742 19.3033 19.0797C19.4595 18.9846 19.6558 18.9737 19.8229 19.0481L26.0814 21.8624L32.3395 19.0481C32.5071 18.9732 32.7034 18.9846 32.8591 19.0797C33.0159 19.1742 33.1105 19.339 33.1105 19.5157V23.4667C33.1105 23.6625 32.9948 23.8413 32.8115 23.9291L26.3231 27.0291C26.2474 27.0653 26.1642 27.0833 26.0814 27.0833ZM20.1338 23.1474L26.0814 25.989L32.0291 23.1474V20.33L26.3118 22.9009C26.1658 22.9665 25.9971 22.9665 25.8511 22.9009L20.1338 20.33V23.1474Z" fill="#052244"/>
<path d="M35.2733 18.8167H26.0814C25.7829 18.8167 25.5407 18.5852 25.5407 18.3C25.5407 18.0148 25.7829 17.7833 26.0814 17.7833H35.2733C35.5717 17.7833 35.814 18.0148 35.814 18.3C35.814 18.5852 35.5717 18.8167 35.2733 18.8167Z" fill="#052244"/>
<path d="M35.2732 23.4667C34.9748 23.4667 34.7325 23.2352 34.7325 22.95V18.3C34.7325 18.0148 34.9748 17.7833 35.2732 17.7833C35.5717 17.7833 35.8139 18.0148 35.8139 18.3V22.95C35.8139 23.2352 35.5717 23.4667 35.2732 23.4667Z" fill="#052244"/>
<path d="M26.0814 19.85C25.7829 19.85 25.5407 19.6185 25.5407 19.3333V17.2667C25.5407 16.9815 25.7829 16.75 26.0814 16.75C26.3799 16.75 26.6221 16.9815 26.6221 17.2667V19.3333C26.6221 19.6185 26.3799 19.85 26.0814 19.85Z" fill="#052244"/>
<path d="M34.1913 25.0167C34.0886 25.0167 33.9842 24.9888 33.8918 24.9299C33.6436 24.7718 33.5766 24.4509 33.742 24.2132L34.8234 22.6632C34.9889 22.4256 35.3241 22.361 35.5734 22.5201C35.8215 22.6782 35.8886 22.9991 35.7231 23.2367L34.6417 24.7868C34.5374 24.9361 34.366 25.0167 34.1913 25.0167Z" fill="#052244"/>
<path d="M36.3552 25.0167C36.1806 25.0167 36.0092 24.9361 35.9048 24.7868L34.8234 23.2367C34.658 22.9996 34.725 22.6782 34.9732 22.5201C35.2214 22.361 35.5572 22.4256 35.7232 22.6632L36.8046 24.2132C36.97 24.4504 36.903 24.7718 36.6548 24.9299C36.5623 24.9888 36.458 25.0167 36.3552 25.0167Z" fill="#052244"/>
<path d="M26.0814 24.5C25.7829 24.5 25.5407 24.2686 25.5407 23.9834V22.4334C25.5407 22.1482 25.7829 21.9167 26.0814 21.9167C26.3799 21.9167 26.6221 22.1482 26.6221 22.4334V23.9834C26.6221 24.2686 26.3799 24.5 26.0814 24.5Z" fill="#052244"/>
<path d="M41.7616 29.15H10.4012C10.1027 29.15 9.86047 28.9185 9.86047 28.6333V11.5838C9.86047 10.4441 10.831 9.51666 12.0238 9.51666H40.139C41.3318 9.51666 42.3023 10.4441 42.3023 11.5838V28.6333C42.3023 28.9185 42.0601 29.15 41.7616 29.15ZM10.9419 28.1167H41.2209V11.5838C41.2209 11.0134 40.7359 10.55 40.139 10.55H12.0238C11.4269 10.55 10.9419 11.0134 10.9419 11.5838V28.1167Z" fill="#052244"/>
<path d="M40.139 33.2834H12.0238C10.831 33.2834 9.86047 32.3559 9.86047 31.2162V28.6334C9.86047 28.3482 10.1027 28.1167 10.4012 28.1167H41.7616C42.0601 28.1167 42.3023 28.3482 42.3023 28.6334V31.2162C42.3023 32.3559 41.3318 33.2834 40.139 33.2834ZM10.9419 29.15V31.2162C10.9419 31.7866 11.4269 32.25 12.0238 32.25H40.139C40.7359 32.25 41.2209 31.7866 41.2209 31.2162V29.15H10.9419Z" fill="#052244"/>
<path d="M27.7035 31.2166H24.4593C24.1608 31.2166 23.9186 30.9852 23.9186 30.7C23.9186 30.4148 24.1608 30.1833 24.4593 30.1833H27.7035C28.0019 30.1833 28.2442 30.4148 28.2442 30.7C28.2442 30.9852 28.0019 31.2166 27.7035 31.2166Z" fill="#052244"/>
<path d="M39.5988 29.15H12.564C12.2655 29.15 12.0233 28.9185 12.0233 28.6333V12.1C12.0233 11.8148 12.2655 11.5833 12.564 11.5833H39.5988C39.8973 11.5833 40.1395 11.8148 40.1395 12.1V28.6333C40.1395 28.9185 39.8973 29.15 39.5988 29.15ZM13.1046 28.1166H39.0581V12.6166H13.1046V28.1166Z" fill="#052244"/>
<path d="M33.1105 39.4833H19.0523C18.158 39.4833 17.4302 38.7879 17.4302 37.9333C17.4302 37.0787 18.158 36.3833 19.0523 36.3833H33.1105C34.0048 36.3833 34.7326 37.0787 34.7326 37.9333C34.7326 38.7879 34.0048 39.4833 33.1105 39.4833ZM19.0523 37.4166C18.7544 37.4166 18.5116 37.6486 18.5116 37.9333C18.5116 38.218 18.7544 38.45 19.0523 38.45H33.1105C33.4084 38.45 33.6512 38.218 33.6512 37.9333C33.6512 37.6486 33.4084 37.4166 33.1105 37.4166H19.0523Z" fill="#052244"/>
<path d="M32.0291 37.4167H20.1337C19.8353 37.4167 19.593 37.1852 19.593 36.9C19.593 36.6148 19.8353 36.3833 20.1337 36.3833C21.9278 36.3833 22.8372 35.1666 22.8372 32.7667C22.8372 32.4815 23.0794 32.25 23.3779 32.25H28.7849C29.0833 32.25 29.3256 32.4815 29.3256 32.7667C29.3256 35.1666 30.235 36.3833 32.0291 36.3833C32.3275 36.3833 32.5698 36.6148 32.5698 36.9C32.5698 37.1852 32.3275 37.4167 32.0291 37.4167ZM22.7675 36.3833H29.3959C28.7297 35.6786 28.3377 34.6293 28.2593 33.2833H23.904C23.8251 34.6293 23.4336 35.6786 22.7675 36.3833Z" fill="#052244"/>
</g>
<defs>
<clipPath id="clip0">
<rect width="32.4419" height="31" fill="white" transform="translate(9.86047 9)"/>
</clipPath>
</defs>
</svg>
