<svg width="53" height="50" viewBox="0 0 53 50" fill="none" xmlns="http://www.w3.org/2000/svg">
<ellipse rx="26.1628" ry="25" transform="matrix(-1 0 0 1 26.1628 25)" fill="white" fill-opacity="0.9"/>
<path d="M32.5761 16.7058C32.2806 16.4236 31.8878 16.268 31.47 16.268C31.0522 16.268 30.6594 16.4236 30.3641 16.7058C30.0686 16.9882 29.9057 17.3635 29.9057 17.7627C29.9057 18.162 30.0686 18.5373 30.3639 18.8195L33.0286 21.3658C33.3238 21.6479 33.7169 21.8035 34.1347 21.8035C34.5525 21.8035 34.9451 21.6479 35.2406 21.3658L40.9338 15.9255C41.2294 15.6431 41.392 15.2678 41.392 14.8688C41.392 14.4696 41.2294 14.0942 40.9338 13.8118C40.6386 13.5294 40.2455 13.374 39.8277 13.374C39.4099 13.374 39.0171 13.5294 38.7218 13.8118L38.0941 14.4116C37.6291 14.0725 37.1187 13.8005 36.5779 13.6037V12.9237C36.5779 12.0995 35.8762 11.429 35.0139 11.429H30.1092V10.9101C30.1092 9.85688 29.2124 9 28.1103 9H22.6405C21.5383 9 20.6416 9.85688 20.6416 10.9101V13.0682C20.6416 13.6534 21.1398 14.1295 21.7522 14.1295H28.9986C29.6109 14.1295 30.1092 13.6534 30.1092 13.0682V12.3386H35.0136C35.3512 12.3386 35.626 12.6011 35.626 12.9237V13.3426C35.2341 13.2669 34.8332 13.2267 34.4275 13.2267C31.0938 13.2267 28.3815 15.8184 28.3815 19.004C28.3815 22.1895 31.0938 24.7812 34.4275 24.7812C34.8342 24.7812 35.2351 24.7422 35.626 24.6672V38.5055C35.626 38.8281 35.3512 39.0904 35.0136 39.0904H15.7369C15.3993 39.0904 15.1248 38.8281 15.1248 38.5055V12.9237C15.1248 12.6011 15.3993 12.3386 15.7369 12.3386H18.9008C19.1637 12.3386 19.3768 12.135 19.3768 11.8838C19.3768 11.6326 19.1637 11.429 18.9008 11.429H15.7369C14.8746 11.429 14.1729 12.0995 14.1729 12.9237V38.5055C14.1729 39.3295 14.8746 40 15.7369 40H35.0139C35.8762 40 36.5779 39.3295 36.5779 38.5055V24.4042C37.3358 24.1287 38.0347 23.7082 38.6327 23.155C39.7634 22.1089 40.416 20.7064 40.47 19.2057C40.4789 18.9548 40.2735 18.7443 40.0106 18.7355C39.7497 18.7272 39.5277 18.9233 39.5186 19.1745C39.4426 21.2868 37.989 23.0308 35.9928 23.6393C35.9653 23.6455 35.9386 23.6535 35.9133 23.6642C35.4435 23.7992 34.9448 23.8716 34.4275 23.8716C31.6187 23.8716 29.3335 21.6879 29.3335 19.004C29.3335 16.32 31.6187 14.1363 34.4275 14.1363C35.5064 14.1363 36.5492 14.4622 37.4142 15.0613L34.1347 18.1953L32.5761 16.7058ZM29.1572 13.0682C29.1572 13.152 29.0862 13.2198 28.9986 13.2198H21.7522C21.6646 13.2198 21.5935 13.152 21.5935 13.0682V10.9101C21.5935 10.3583 22.0631 9.90962 22.6405 9.90962H28.1103C28.6875 9.90962 29.1572 10.3583 29.1572 10.9101V13.0682ZM39.3951 14.4551C39.5107 14.3444 39.6644 14.2837 39.8277 14.2837C39.9913 14.2837 40.145 14.3447 40.2609 14.4551C40.4995 14.6831 40.4995 15.0545 40.2609 15.2824L34.5673 20.7227C34.4518 20.8331 34.2981 20.8941 34.1344 20.8941C33.9708 20.8941 33.8171 20.8331 33.7016 20.7227L31.0368 18.1764C30.9213 18.0659 30.8576 17.9191 30.8576 17.7627C30.8576 17.6064 30.9213 17.4595 31.0371 17.3491C31.1527 17.2386 31.3064 17.1776 31.47 17.1776C31.6333 17.1776 31.7873 17.2386 31.9029 17.3491L33.7981 19.16C33.984 19.3377 34.2852 19.3377 34.4711 19.16L39.3951 14.4551Z" fill="#052244"/>
<path d="M27.1266 20.4159H21.3272C21.0643 20.4159 20.8515 20.6195 20.8515 20.8707C20.8515 21.1216 21.0643 21.3253 21.3272 21.3253H27.1266C27.3895 21.3253 27.6026 21.1216 27.6026 20.8707C27.6026 20.6195 27.3895 20.4159 27.1266 20.4159Z" fill="#052244"/>
<path d="M20.4188 15.7214H17.2163C16.9534 15.7214 16.7403 15.925 16.7403 16.1762C16.7403 16.4274 16.9534 16.631 17.2163 16.631H20.4188C20.6817 16.631 20.8948 16.4274 20.8948 16.1762C20.8948 15.925 20.6817 15.7214 20.4188 15.7214Z" fill="#052244"/>
<path d="M21.3272 23.4353H27.1266C27.3895 23.4353 27.6026 23.2316 27.6026 22.9805C27.6026 22.7295 27.3895 22.5259 27.1266 22.5259H21.3272C21.0643 22.5259 20.8515 22.7295 20.8515 22.9805C20.8515 23.2316 21.0643 23.4353 21.3272 23.4353Z" fill="#052244"/>
<path d="M29.13 25.9318H21.3272C21.0643 25.9318 20.8515 26.1355 20.8515 26.3866C20.8515 26.6378 21.0643 26.8414 21.3272 26.8414H29.13C29.3929 26.8414 29.606 26.6378 29.606 26.3866C29.606 26.1355 29.3929 25.9318 29.13 25.9318Z" fill="#052244"/>
<path d="M21.3272 28.9514H25.2287C25.4916 28.9514 25.7044 28.7477 25.7044 28.4966C25.7044 28.2454 25.4916 28.0417 25.2287 28.0417H21.3272C21.0643 28.0417 20.8515 28.2454 20.8515 28.4966C20.8515 28.7477 21.0643 28.9514 21.3272 28.9514Z" fill="#052244"/>
<path d="M21.3272 32.3633H27.1266C27.3895 32.3633 27.6026 32.1597 27.6026 31.9085C27.6026 31.6573 27.3895 31.4537 27.1266 31.4537H21.3272C21.0643 31.4537 20.8515 31.6573 20.8515 31.9085C20.8515 32.1597 21.0643 32.3633 21.3272 32.3633Z" fill="#052244"/>
<path d="M21.3272 34.473H29.13C29.3929 34.473 29.606 34.2693 29.606 34.0182C29.606 33.7672 29.3929 33.5636 29.13 33.5636H21.3272C21.0643 33.5636 20.8515 33.7672 20.8515 34.0182C20.8515 34.2693 21.0643 34.473 21.3272 34.473Z" fill="#052244"/>
<path d="M18.2264 20.0217C17.1663 20.0217 16.3039 20.8457 16.3039 21.8586C16.3039 22.8716 17.1663 23.6956 18.2264 23.6956C19.2865 23.6956 20.1488 22.8716 20.1488 21.8586C20.1488 20.8457 19.2865 20.0217 18.2264 20.0217ZM18.2264 22.786C17.6913 22.786 17.2559 22.37 17.2559 21.8586C17.2559 21.3473 17.6913 20.9313 18.2264 20.9313C18.7615 20.9313 19.1969 21.3473 19.1969 21.8586C19.1969 22.37 18.7615 22.786 18.2264 22.786Z" fill="#052244"/>
<path d="M18.2264 25.6045C17.1663 25.6045 16.3039 26.4287 16.3039 27.4415C16.3039 28.4545 17.1663 29.2785 18.2264 29.2785C19.2865 29.2785 20.1488 28.4545 20.1488 27.4415C20.1488 26.4287 19.2865 25.6045 18.2264 25.6045ZM18.2264 28.3691C17.6913 28.3691 17.2559 27.953 17.2559 27.4417C17.2559 26.9301 17.6913 26.5141 18.2264 26.5141C18.7615 26.5141 19.1969 26.9301 19.1969 27.4417C19.1969 27.953 18.7615 28.3691 18.2264 28.3691Z" fill="#052244"/>
<path d="M18.2264 31.1263C17.1663 31.1263 16.3039 31.9503 16.3039 32.9633C16.3039 33.9763 17.1663 34.8003 18.2264 34.8003C19.2865 34.8003 20.1488 33.9763 20.1488 32.9633C20.1488 31.9503 19.2865 31.1263 18.2264 31.1263ZM18.2264 33.8907C17.6913 33.8907 17.2559 33.4747 17.2559 32.9633C17.2559 32.452 17.6913 32.036 18.2264 32.036C18.7615 32.036 19.1969 32.452 19.1969 32.9633C19.1969 33.4747 18.7615 33.8907 18.2264 33.8907Z" fill="#052244"/>
</svg>
