<svg width="17" height="17" viewBox="0 0 17 17" fill="none" xmlns="http://www.w3.org/2000/svg">
<g clip-path="url(#clip0)">
<path d="M16.9834 4.99805C16.9436 4.09477 16.7975 3.47378 16.5883 2.93568C16.3724 2.3645 16.0403 1.85312 15.6052 1.42801C15.1801 0.996288 14.6654 0.660819 14.1008 0.44833C13.5596 0.239083 12.9418 0.0930128 12.0386 0.0531873C11.1285 0.00998882 10.8396 0 8.53157 0C6.2235 0 5.9346 0.00998882 5.02795 0.0498144C4.12468 0.08964 3.50368 0.23584 2.96571 0.444957C2.39441 0.660819 1.88303 0.992916 1.45792 1.42801C1.0262 1.85312 0.690856 2.36787 0.478237 2.93243C0.268991 3.47378 0.12292 4.0914 0.0830945 4.99467C0.039896 5.90469 0.0299072 6.19359 0.0299072 8.50166C0.0299072 10.8097 0.039896 11.0986 0.0797216 12.0053C0.119547 12.9085 0.265747 13.5295 0.474994 14.0676C0.690856 14.6388 1.0262 15.1502 1.45792 15.5753C1.88303 16.007 2.39778 16.3425 2.96234 16.555C3.50368 16.7642 4.12131 16.9103 5.02471 16.9501C5.93123 16.9901 6.22026 16.9999 8.52832 16.9999C10.8364 16.9999 11.1253 16.9901 12.0319 16.9501C12.9352 16.9103 13.5562 16.7642 14.0942 16.555C15.2367 16.1133 16.1399 15.21 16.5817 14.0676C16.7908 13.5263 16.937 12.9085 16.9768 12.0053C17.0166 11.0986 17.0266 10.8097 17.0266 8.50166C17.0266 6.19359 17.0232 5.90469 16.9834 4.99805ZM15.4525 11.9389C15.4159 12.7691 15.2765 13.2174 15.1603 13.5163C14.8746 14.2569 14.2868 14.8447 13.5462 15.1304C13.2473 15.2466 12.7958 15.386 11.9688 15.4225C11.0721 15.4624 10.8032 15.4723 8.53494 15.4723C6.2667 15.4723 5.99441 15.4624 5.10099 15.4225C4.27075 15.386 3.82242 15.2466 3.52353 15.1304C3.15498 14.9941 2.81951 14.7783 2.54722 14.496C2.26494 14.2203 2.04908 13.8882 1.91287 13.5197C1.79663 13.2208 1.65718 12.7691 1.62073 11.9422C1.58077 11.0456 1.57091 10.7765 1.57091 8.50828C1.57091 6.24003 1.58077 5.96774 1.62073 5.07445C1.65718 4.24421 1.79663 3.79588 1.91287 3.497C2.04908 3.12832 2.26494 2.79298 2.55059 2.52056C2.82613 2.23828 3.15823 2.02241 3.52691 1.88633C3.82579 1.7701 4.27749 1.63064 5.10436 1.59406C6.00102 1.55424 6.27007 1.54425 8.53818 1.54425C10.8098 1.54425 11.0787 1.55424 11.9721 1.59406C12.8024 1.63064 13.2507 1.7701 13.5496 1.88633C13.9181 2.02241 14.2536 2.23828 14.5259 2.52056C14.8082 2.79622 15.024 3.12832 15.1603 3.497C15.2765 3.79588 15.4159 4.24746 15.4525 5.07445C15.4924 5.97111 15.5023 6.24003 15.5023 8.50828C15.5023 10.7765 15.4924 11.0422 15.4525 11.9389Z" fill="white" fill-opacity="0.4"/>
<path d="M8.53148 4.13458C6.12055 4.13458 4.16443 6.09058 4.16443 8.50165C4.16443 10.9127 6.12055 12.8687 8.53148 12.8687C10.9426 12.8687 12.8985 10.9127 12.8985 8.50165C12.8985 6.09058 10.9426 4.13458 8.53148 4.13458ZM8.53148 11.3345C6.96739 11.3345 5.69868 10.0659 5.69868 8.50165C5.69868 6.93742 6.96739 5.66884 8.53148 5.66884C10.0957 5.66884 11.3643 6.93742 11.3643 8.50165C11.3643 10.0659 10.0957 11.3345 8.53148 11.3345Z" fill="white" fill-opacity="0.4"/>
<path d="M14.0909 3.96192C14.0909 4.52492 13.6344 4.98142 13.0713 4.98142C12.5083 4.98142 12.0518 4.52492 12.0518 3.96192C12.0518 3.39878 12.5083 2.94241 13.0713 2.94241C13.6344 2.94241 14.0909 3.39878 14.0909 3.96192Z" fill="white" fill-opacity="0.4"/>
</g>
<defs>
<clipPath id="clip0">
<rect width="17" height="17" fill="white"/>
</clipPath>
</defs>
</svg>
